<svg width="100" height="100" viewBox="0 0 100 100" fill="none" xmlns="http://www.w3.org/2000/svg">
<path d="M29.5781 58.8496C31.222 58.8496 32.5729 58.6787 33.6309 58.3369C35.5189 57.7021 37.0651 56.4814 38.2695 54.6748C39.2298 53.2262 39.9215 51.3708 40.3447 49.1084C40.5889 47.7575 40.7109 46.5042 40.7109 45.3486C40.7109 40.9053 39.8239 37.4548 38.0498 34.9971C36.292 32.5394 33.4518 31.3105 29.5293 31.3105H20.9111V58.8496H29.5781ZM16.0283 27.1357H30.5547C35.4863 27.1357 39.3112 28.8854 42.0293 32.3848C44.4544 35.5423 45.667 39.5869 45.667 44.5186C45.667 48.3271 44.9508 51.7695 43.5186 54.8457C40.9958 60.2819 36.6582 63 30.5059 63H16.0283V27.1357Z" fill="#2176AE"/>
<path d="M48.8555 36.8525H53.2012V40.5635C54.2428 39.2777 55.1868 38.3418 56.0332 37.7559C57.4818 36.763 59.1257 36.2666 60.9648 36.2666C63.0482 36.2666 64.7246 36.7793 65.9941 37.8047C66.7103 38.3906 67.3613 39.2533 67.9473 40.3926C68.9238 38.9928 70.0713 37.9593 71.3896 37.292C72.708 36.6084 74.1891 36.2666 75.833 36.2666C79.3486 36.2666 81.7412 37.5361 83.0107 40.0752C83.6943 41.4424 84.0361 43.2816 84.0361 45.5928V63H79.4707V44.8359C79.4707 43.0944 79.0312 41.8981 78.1523 41.2471C77.2897 40.596 76.2318 40.2705 74.9785 40.2705C73.2533 40.2705 71.764 40.8483 70.5107 42.0039C69.2738 43.1595 68.6553 45.0882 68.6553 47.79V63H64.1875V45.9346C64.1875 44.1605 63.9759 42.8665 63.5527 42.0527C62.8854 40.832 61.6403 40.2217 59.8174 40.2217C58.1572 40.2217 56.6436 40.8646 55.2764 42.1504C53.9255 43.4362 53.25 45.7637 53.25 49.1328V63H48.8555V36.8525Z" fill="#2176AE"/>
<path d="M8.33984 82.0684V81.125C9.22852 81.0384 9.84831 80.8949 10.1992 80.6943C10.5501 80.4893 10.8122 80.0085 10.9854 79.252H11.9561V89H10.6436V82.0684H8.33984Z" fill="#2176AE"/>
<path d="M17.8801 79.2109C19.147 79.2109 20.063 79.7327 20.6281 80.7764C21.0656 81.583 21.2844 82.6882 21.2844 84.0918C21.2844 85.4225 21.0861 86.5231 20.6896 87.3936C20.1154 88.6423 19.1766 89.2666 17.8732 89.2666C16.6975 89.2666 15.8225 88.7562 15.2482 87.7354C14.7697 86.8831 14.5305 85.7393 14.5305 84.3037C14.5305 83.1917 14.674 82.237 14.9611 81.4395C15.4989 79.9538 16.4719 79.2109 17.8801 79.2109ZM17.8664 88.1455C18.5044 88.1455 19.0126 87.863 19.3908 87.2979C19.7691 86.7327 19.9582 85.68 19.9582 84.1396C19.9582 83.0277 19.8215 82.1139 19.548 81.3984C19.2746 80.6784 18.7437 80.3184 17.9553 80.3184C17.2307 80.3184 16.6997 80.6602 16.3625 81.3438C16.0298 82.0228 15.8635 83.0254 15.8635 84.3516C15.8635 85.3496 15.9706 86.1517 16.1848 86.7578C16.5129 87.6829 17.0734 88.1455 17.8664 88.1455Z" fill="#2176AE"/>
<path d="M24.973 79.2109C26.24 79.2109 27.156 79.7327 27.7211 80.7764C28.1586 81.583 28.3773 82.6882 28.3773 84.0918C28.3773 85.4225 28.1791 86.5231 27.7826 87.3936C27.2084 88.6423 26.2696 89.2666 24.9662 89.2666C23.7904 89.2666 22.9154 88.7562 22.3412 87.7354C21.8627 86.8831 21.6234 85.7393 21.6234 84.3037C21.6234 83.1917 21.767 82.237 22.0541 81.4395C22.5919 79.9538 23.5648 79.2109 24.973 79.2109ZM24.9594 88.1455C25.5974 88.1455 26.1055 87.863 26.4838 87.2979C26.862 86.7327 27.0512 85.68 27.0512 84.1396C27.0512 83.0277 26.9145 82.1139 26.641 81.3984C26.3676 80.6784 25.8367 80.3184 25.0482 80.3184C24.3236 80.3184 23.7927 80.6602 23.4555 81.3438C23.1228 82.0228 22.9564 83.0254 22.9564 84.3516C22.9564 85.3496 23.0635 86.1517 23.2777 86.7578C23.6059 87.6829 24.1664 88.1455 24.9594 88.1455Z" fill="#2176AE"/>
<path d="M37.8219 84.2422C38.4781 84.2422 39.0387 84.4746 39.5035 84.9395C39.9684 85.4043 40.2008 85.9648 40.2008 86.6211C40.2008 87.2773 39.9684 87.8379 39.5035 88.3027C39.0387 88.7676 38.4781 89 37.8219 89C37.1611 89 36.5982 88.7676 36.1334 88.3027C35.6686 87.8379 35.4361 87.2773 35.4361 86.6211C35.4361 85.9648 35.6686 85.4043 36.1334 84.9395C36.5982 84.4746 37.1611 84.2422 37.8219 84.2422ZM36.8307 79.252H37.5895L32.1139 89.2598H31.3551L36.8307 79.252ZM31.109 83.2988C31.5009 83.2988 31.8336 83.1621 32.107 82.8887C32.385 82.6107 32.524 82.278 32.524 81.8906C32.524 81.5033 32.385 81.1729 32.107 80.8994C31.8336 80.6214 31.5009 80.4824 31.109 80.4824C30.7216 80.4824 30.3889 80.6191 30.1109 80.8926C29.8375 81.166 29.7008 81.4987 29.7008 81.8906C29.7008 82.278 29.8375 82.6107 30.1109 82.8887C30.3889 83.1621 30.7216 83.2988 31.109 83.2988ZM31.109 79.5049C31.7698 79.5049 32.3326 79.7396 32.7975 80.209C33.2623 80.6738 33.4947 81.2344 33.4947 81.8906C33.4947 82.5469 33.2623 83.1074 32.7975 83.5723C32.3326 84.0371 31.7698 84.2695 31.109 84.2695C30.4527 84.2695 29.8922 84.0371 29.4273 83.5723C28.9625 83.1074 28.7301 82.5469 28.7301 81.8906C28.7301 81.2344 28.9625 80.6738 29.4273 80.209C29.8922 79.7396 30.4527 79.5049 31.109 79.5049ZM37.8219 88.0293C38.2092 88.0293 38.5396 87.8926 38.8131 87.6191C39.0911 87.3411 39.2301 87.0085 39.2301 86.6211C39.2301 86.2337 39.0911 85.9033 38.8131 85.6299C38.5396 85.3519 38.2092 85.2129 37.8219 85.2129C37.4299 85.2129 37.095 85.3519 36.817 85.6299C36.5436 85.9033 36.4068 86.2337 36.4068 86.6211C36.4068 87.0085 36.5436 87.3411 36.817 87.6191C37.095 87.8926 37.4299 88.0293 37.8219 88.0293Z" fill="#2176AE"/>
<path d="M48.1523 87.8379C48.6126 87.8379 48.9909 87.79 49.2871 87.6943C49.8158 87.5166 50.2487 87.1748 50.5859 86.6689C50.8548 86.2633 51.0485 85.7438 51.167 85.1104C51.2354 84.7321 51.2695 84.3812 51.2695 84.0576C51.2695 82.8135 51.0212 81.8473 50.5244 81.1592C50.0322 80.471 49.237 80.127 48.1387 80.127H45.7256V87.8379H48.1523ZM44.3584 78.958H48.4258C49.8066 78.958 50.8776 79.4479 51.6387 80.4277C52.3177 81.3118 52.6572 82.4443 52.6572 83.8252C52.6572 84.8916 52.4567 85.8555 52.0557 86.7168C51.3493 88.2389 50.1348 89 48.4121 89H44.3584V78.958Z" fill="#2176AE"/>
<path d="M54.0217 78.958H55.3957V89H54.0217V78.958Z" fill="#2176AE"/>
<path d="M61.2514 78.6982C62.1947 78.6982 63.0105 78.8805 63.6986 79.2451C64.6967 79.7692 65.3074 80.6875 65.5307 82H64.184C64.0199 81.2663 63.6804 80.7331 63.1654 80.4004C62.6505 80.0632 62.001 79.8945 61.2172 79.8945C60.2875 79.8945 59.5036 80.2432 58.8656 80.9404C58.2322 81.6377 57.9154 82.6768 57.9154 84.0576C57.9154 85.2516 58.1775 86.2246 58.7016 86.9766C59.2256 87.724 60.0801 88.0977 61.265 88.0977C62.1719 88.0977 62.9216 87.8356 63.5141 87.3115C64.1111 86.7829 64.4164 85.9307 64.4301 84.7549H61.2855V83.627H65.6947V89H64.8197L64.4916 87.708C64.0313 88.2139 63.6234 88.5648 63.268 88.7607C62.671 89.098 61.9122 89.2666 60.9916 89.2666C59.8021 89.2666 58.779 88.8815 57.9223 88.1113C56.988 87.1452 56.5209 85.819 56.5209 84.1328C56.5209 82.4512 56.9766 81.1136 57.8881 80.1201C58.754 79.1722 59.8751 78.6982 61.2514 78.6982Z" fill="#2176AE"/>
<path d="M67.4146 78.958H68.7887V89H67.4146V78.958Z" fill="#2176AE"/>
<path d="M77.6111 78.958V80.1543H74.2273V89H72.8465V80.1543H69.4627V78.958H77.6111Z" fill="#2176AE"/>
<path d="M82.2773 84.8848L80.7529 80.4482L79.1328 84.8848H82.2773ZM80.042 78.958H81.5801L85.2236 89H83.7334L82.7148 85.9922H78.7432L77.6562 89H76.2617L80.042 78.958Z" fill="#2176AE"/>
<path d="M85.7609 78.958H87.1213V87.8037H92.2072V89H85.7609V78.958Z" fill="#2176AE"/>
<path d="M6.54297 6.95801V13.165C6.54297 13.8942 6.67969 14.5003 6.95312 14.9834C7.35872 15.7126 8.04232 16.0771 9.00391 16.0771C10.1569 16.0771 10.9408 15.6829 11.3555 14.8945C11.5788 14.4661 11.6904 13.8896 11.6904 13.165V6.95801H13.0713V12.5977C13.0713 13.8327 12.9049 14.7829 12.5723 15.4482C11.9616 16.6605 10.8086 17.2666 9.11328 17.2666C7.41797 17.2666 6.26725 16.6605 5.66113 15.4482C5.32845 14.7829 5.16211 13.8327 5.16211 12.5977V6.95801H6.54297Z" fill="#2176AE"/>
<path d="M15.7649 17H14.1243L17.72 11.8525L14.3499 6.95801H16.052L18.6155 10.7998L21.1585 6.95801H22.7786L19.4085 11.8525L22.9427 17H21.2542L18.5471 12.8711L15.7649 17Z" fill="#2176AE"/>
<path d="M84.543 6.95801V13.165C84.543 13.8942 84.6797 14.5003 84.9531 14.9834C85.3587 15.7126 86.0423 16.0771 87.0039 16.0771C88.1569 16.0771 88.9408 15.6829 89.3555 14.8945C89.5788 14.4661 89.6904 13.8896 89.6904 13.165V6.95801H91.0713V12.5977C91.0713 13.8327 90.9049 14.7829 90.5723 15.4482C89.9616 16.6605 88.8086 17.2666 87.1133 17.2666C85.418 17.2666 84.2673 16.6605 83.6611 15.4482C83.3285 14.7829 83.1621 13.8327 83.1621 12.5977V6.95801H84.543Z" fill="#2176AE"/>
<path d="M93.2112 6.95801H94.5852V17H93.2112V6.95801Z" fill="#2176AE"/>
</svg>
