<svg width="60" height="60" viewBox="0 0 60 60" fill="none" xmlns="http://www.w3.org/2000/svg">
<rect x="0.5" y="0.5" width="59" height="59" stroke="black"/>
<path d="M16.6011 38.2612C17.686 38.2612 18.5776 38.1484 19.2759 37.9229C20.522 37.5039 21.5425 36.6982 22.3374 35.5059C22.9712 34.5498 23.4277 33.3252 23.707 31.832C23.8682 30.9404 23.9487 30.1133 23.9487 29.3506C23.9487 26.418 23.3633 24.1406 22.1924 22.5186C21.0322 20.8965 19.1577 20.0854 16.5688 20.0854H10.8809V38.2612H16.6011ZM7.6582 17.3301H17.2456C20.5005 17.3301 23.0249 18.4849 24.8188 20.7944C26.4194 22.8784 27.2197 25.5479 27.2197 28.8027C27.2197 31.3164 26.7471 33.5884 25.8018 35.6187C24.1367 39.2065 21.2739 41.0005 17.2134 41.0005H7.6582V17.3301Z" fill="black"/>
<path d="M30.3141 23.7432H33.1823V26.1924C33.8698 25.3438 34.4928 24.7261 35.0514 24.3394C36.0075 23.6841 37.0924 23.3564 38.3063 23.3564C39.6813 23.3564 40.7878 23.6948 41.6256 24.3716C42.0983 24.7583 42.528 25.3276 42.9147 26.0796C43.5592 25.1558 44.3166 24.4736 45.1867 24.0332C46.0568 23.582 47.0343 23.3564 48.1193 23.3564C50.4396 23.3564 52.0187 24.1943 52.8566 25.8701C53.3078 26.7725 53.5334 27.9863 53.5334 29.5117V41.0005H50.5202V29.0122C50.5202 27.8628 50.2301 27.0732 49.6501 26.6436C49.0807 26.2139 48.3825 25.999 47.5553 25.999C46.4167 25.999 45.4338 26.3804 44.6066 27.1431C43.7902 27.9058 43.382 29.1787 43.382 30.9619V41.0005H40.4333V29.7373C40.4333 28.5664 40.2936 27.7124 40.0143 27.1753C39.5739 26.3696 38.7521 25.9668 37.549 25.9668C36.4533 25.9668 35.4543 26.3911 34.5519 27.2397C33.6603 28.0884 33.2145 29.6245 33.2145 31.8481V41.0005H30.3141V23.7432Z" fill="black"/>
</svg>
