<svg width="80" height="80" viewBox="0 0 80 80" fill="none" xmlns="http://www.w3.org/2000/svg">
<g clip-path="url(#clip0_569_277)">
<path d="M79.6004 0.400391H0.400391V79.6004H79.6004V0.400391Z" stroke="#2176AE"/>
<path d="M23.6621 47.0801C24.9772 47.0801 26.0579 46.9434 26.9043 46.6699C28.4147 46.1621 29.6517 45.1855 30.6152 43.7403C31.3835 42.5814 31.9368 41.0971 32.2754 39.2871C32.4707 38.2064 32.5683 37.2038 32.5683 36.2793C32.5683 32.7247 31.8587 29.9643 30.4395 27.9981C29.0332 26.0319 26.7611 25.0488 23.6231 25.0488H16.7285V47.0801H23.6621ZM12.8223 21.709H24.4434C28.3887 21.709 31.4486 23.1087 33.6231 25.9083C35.5631 28.4343 36.5332 31.6699 36.5332 35.6153C36.5332 38.6621 35.9603 41.416 34.8145 43.877C32.7963 48.2259 29.3262 50.4004 24.4043 50.4004H12.8223V21.709ZM39.084 29.4824H42.5606V32.4512C43.3939 31.4226 44.1491 30.6739 44.8262 30.2051C45.9851 29.4108 47.3002 29.0137 48.7715 29.0137C50.4382 29.0137 51.7793 29.4239 52.7949 30.2442C53.3679 30.7129 53.8887 31.4031 54.3575 32.3145C55.1387 31.1947 56.0567 30.3679 57.1113 29.834C58.166 29.2871 59.3509 29.0137 60.666 29.0137C63.4785 29.0137 65.3926 30.0293 66.4082 32.0606C66.9551 33.1543 67.2285 34.6257 67.2285 36.4747V50.4004H63.5762V35.8691C63.5762 34.4759 63.2246 33.5189 62.5215 32.9981C61.8314 32.4772 60.9851 32.2168 59.9824 32.2168C58.6023 32.2168 57.4108 32.6791 56.4082 33.6035C55.4187 34.528 54.9239 36.071 54.9239 38.2324V50.4004H51.3496V36.7481C51.3496 35.3288 51.1803 34.2936 50.8418 33.6426C50.3079 32.666 49.3119 32.1778 47.8535 32.1778C46.5254 32.1778 45.3145 32.6921 44.2207 33.7207C43.14 34.7494 42.5996 36.6114 42.5996 39.3067V50.4004H39.084V29.4824Z" fill="#2176AE"/>
<path d="M6.67188 65.6551V64.9004C7.38282 64.8311 7.87865 64.7163 8.15936 64.5559C8.44008 64.3919 8.64976 64.0072 8.78832 63.402H9.56488V71.2004H8.51488V65.6551H6.67188ZM14.3041 63.3691C15.3176 63.3691 16.0504 63.7866 16.5025 64.6215C16.8525 65.2668 17.0275 66.151 17.0275 67.2739C17.0275 68.3384 16.8689 69.2189 16.5517 69.9153C16.0923 70.9143 15.3413 71.4137 14.2986 71.4137C13.358 71.4137 12.658 71.0054 12.1986 70.1887C11.8158 69.5069 11.6244 68.5919 11.6244 67.4434C11.6244 66.5538 11.7392 65.79 11.9689 65.152C12.3991 63.9635 13.1775 63.3691 14.3041 63.3691ZM14.2931 70.5168C14.8035 70.5168 15.2101 70.2908 15.5126 69.8387C15.8153 69.3866 15.9666 68.5444 15.9666 67.3121C15.9666 66.4226 15.8572 65.6915 15.6384 65.1191C15.4197 64.5431 14.995 64.2551 14.3642 64.2551C13.7846 64.2551 13.3598 64.5286 13.09 65.0755C12.8238 65.6187 12.6908 66.4207 12.6908 67.4817C12.6908 68.2801 12.7765 68.9218 12.9478 69.4067C13.2103 70.1467 13.6587 70.5168 14.2931 70.5168ZM19.9784 63.3691C20.992 63.3691 21.7248 63.7866 22.1769 64.6215C22.5269 65.2668 22.7018 66.151 22.7018 67.2739C22.7018 68.3384 22.5433 69.2189 22.2261 69.9153C21.7667 70.9143 21.0157 71.4137 19.973 71.4137C19.0323 71.4137 18.3323 71.0054 17.873 70.1887C17.4902 69.5069 17.2987 68.5919 17.2987 67.4434C17.2987 66.5538 17.4136 65.79 17.6433 65.152C18.0735 63.9635 18.8518 63.3691 19.9784 63.3691ZM19.9675 70.5168C20.4779 70.5168 20.8844 70.2908 21.187 69.8387C21.4896 69.3866 21.641 68.5444 21.641 67.3121C21.641 66.4226 21.5316 65.6915 21.3128 65.1191C21.0941 64.5431 20.6694 64.2551 20.0386 64.2551C19.4589 64.2551 19.0342 64.5286 18.7644 65.0755C18.4982 65.6187 18.3651 66.4207 18.3651 67.4817C18.3651 68.2801 18.4508 68.9218 18.6222 69.4067C18.8847 70.1467 19.3331 70.5168 19.9675 70.5168ZM30.2575 67.3942C30.7825 67.3942 31.231 67.5801 31.6028 67.952C31.9747 68.3239 32.1606 68.7723 32.1606 69.2973C32.1606 69.8223 31.9747 70.2707 31.6028 70.6426C31.231 71.0145 30.7825 71.2004 30.2575 71.2004C29.7289 71.2004 29.2786 71.0145 28.9067 70.6426C28.5349 70.2707 28.3489 69.8223 28.3489 69.2973C28.3489 68.7723 28.5349 68.3239 28.9067 67.952C29.2786 67.5801 29.7289 67.3942 30.2575 67.3942ZM29.4646 63.402H30.0716L25.6911 71.4083H25.0841L29.4646 63.402ZM24.8872 66.6395C25.2007 66.6395 25.4669 66.5301 25.6856 66.3114C25.908 66.089 26.0192 65.8228 26.0192 65.5129C26.0192 65.2031 25.908 64.9387 25.6856 64.7199C25.4669 64.4975 25.2007 64.3863 24.8872 64.3863C24.5773 64.3863 24.3111 64.4957 24.0887 64.7145C23.87 64.9332 23.7606 65.1994 23.7606 65.5129C23.7606 65.8228 23.87 66.089 24.0887 66.3114C24.3111 66.5301 24.5773 66.6395 24.8872 66.6395ZM24.8872 63.6043C25.4158 63.6043 25.8661 63.7921 26.238 64.1676C26.6098 64.5395 26.7958 64.9879 26.7958 65.5129C26.7958 66.0379 26.6098 66.4864 26.238 66.8583C25.8661 67.2301 25.4158 67.416 24.8872 67.416C24.3622 67.416 23.9138 67.2301 23.5418 66.8583C23.17 66.4864 22.9841 66.0379 22.9841 65.5129C22.9841 64.9879 23.17 64.5395 23.5418 64.1676C23.9138 63.7921 24.3622 63.6043 24.8872 63.6043ZM30.2575 70.4239C30.5674 70.4239 30.8317 70.3145 31.0505 70.0957C31.2729 69.8733 31.3841 69.6072 31.3841 69.2973C31.3841 68.9874 31.2729 68.7231 31.0505 68.5043C30.8317 68.2819 30.5674 68.1707 30.2575 68.1707C29.9439 68.1707 29.676 68.2819 29.4536 68.5043C29.2349 68.7231 29.1254 68.9874 29.1254 69.2973C29.1254 69.6072 29.2349 69.8733 29.4536 70.0957C29.676 70.3145 29.9439 70.4239 30.2575 70.4239ZM38.5218 70.2707C38.8901 70.2707 39.1927 70.2324 39.4297 70.1559C39.8526 70.0137 40.199 69.7403 40.4687 69.3355C40.6838 69.0111 40.8388 68.5955 40.9336 68.0887C40.9883 67.7861 41.0156 67.5054 41.0156 67.2465C41.0156 66.2512 40.817 65.4783 40.4195 64.9278C40.0258 64.3772 39.3896 64.102 38.511 64.102H36.5805V70.2707H38.5218ZM35.4867 63.1668H38.7406C39.8453 63.1668 40.7021 63.5587 41.311 64.3426C41.8542 65.0499 42.1258 65.9559 42.1258 67.0606C42.1258 67.9137 41.9654 68.6848 41.6446 69.3739C41.0794 70.5915 40.1078 71.2004 38.7297 71.2004H35.4867V63.1668ZM43.2174 63.1668H44.3166V71.2004H43.2174V63.1668ZM49.0011 62.959C49.7558 62.959 50.4084 63.1048 50.9589 63.3965C51.7574 63.8158 52.2459 64.5504 52.4246 65.6004H51.3472C51.2159 65.0135 50.9443 64.5869 50.5323 64.3207C50.1204 64.051 49.6008 63.916 48.9738 63.916C48.23 63.916 47.6029 64.195 47.0925 64.7527C46.5858 65.3106 46.3323 66.1419 46.3323 67.2465C46.3323 68.2017 46.542 68.9801 46.9613 69.5817C47.3805 70.1796 48.0641 70.4786 49.012 70.4786C49.7375 70.4786 50.3373 70.2689 50.8113 69.8496C51.2889 69.4267 51.5331 68.745 51.5441 67.8043H49.0284V66.902H52.5558V71.2004H51.8558L51.5933 70.1668C51.225 70.5715 50.8987 70.8523 50.6144 71.009C50.1368 71.2788 49.5298 71.4137 48.7933 71.4137C47.8417 71.4137 47.0232 71.1056 46.3378 70.4895C45.5904 69.7166 45.2167 68.6556 45.2167 67.3067C45.2167 65.9614 45.5813 64.8913 46.3105 64.0965C47.0032 63.3382 47.9001 62.959 49.0011 62.959ZM53.9317 63.1668H55.0309V71.2004H53.9317V63.1668ZM62.0889 63.1668V64.1239H59.3818V71.2004H58.2772V64.1239H55.5702V63.1668H62.0889ZM65.8218 67.9083L64.6023 64.359L63.3062 67.9083H65.8218ZM64.0336 63.1668H65.2641L68.1789 71.2004H66.9867L66.1718 68.7942H62.9946L62.125 71.2004H61.0094L64.0336 63.1668ZM68.6087 63.1668H69.697V70.2434H73.7657V71.2004H68.6087V63.1668Z" fill="#2176AE"/>
<path d="M5.23457 5.56641V10.532C5.23457 11.1154 5.34395 11.6002 5.56269 11.9867C5.88717 12.5701 6.43405 12.8617 7.20332 12.8617C8.12572 12.8617 8.75284 12.5463 9.0846 11.9156C9.26324 11.5729 9.35252 11.1117 9.35252 10.532V5.56641H10.4572V10.0782C10.4572 11.0662 10.3241 11.8263 10.058 12.3586C9.56947 13.3284 8.64708 13.8133 7.29082 13.8133C5.93457 13.8133 5.01399 13.3284 4.5291 12.3586C4.26295 11.8263 4.12988 11.0662 4.12988 10.0782V5.56641H5.23457ZM12.6121 13.6H11.2996L14.1762 9.482L11.4801 5.56641H12.8418L14.8926 8.63984L16.927 5.56641H18.2231L15.527 9.482L18.3544 13.6H17.0036L14.8379 10.2969L12.6121 13.6Z" fill="#2176AE"/>
<path d="M67.634 5.56641V10.532C67.634 11.1154 67.7434 11.6002 67.9621 11.9867C68.2866 12.5701 68.8335 12.8617 69.6027 12.8617C70.5251 12.8617 71.1523 12.5463 71.484 11.9156C71.6627 11.5729 71.7519 11.1117 71.7519 10.532V5.56641H72.8567V10.0782C72.8567 11.0662 72.7235 11.8263 72.4575 12.3586C71.9689 13.3284 71.0465 13.8133 69.6903 13.8133C68.334 13.8133 67.4135 13.3284 66.9285 12.3586C66.6624 11.8263 66.5293 11.0662 66.5293 10.0782V5.56641H67.634ZM74.5686 5.56641H75.6678V13.6H74.5686V5.56641Z" fill="#2176AE"/>
</g>
<defs>
<clipPath id="clip0_569_277">
<rect width="80" height="80" fill="white"/>
</clipPath>
</defs>
</svg>
